<svg id="Livello_1" data-name="Livello 1" xmlns="http://www.w3.org/2000/svg" viewBox="0 0 67 67"><defs><style>.cls-1{fill:none;stroke:#fff;stroke-miterlimit:10;stroke-width:2.24011px;}</style></defs><line class="cls-1" x1="6.97917" y1="19.54167" y2="19.54167"/><line class="cls-1" x1="6.97917" y1="26.52083" y2="26.52083"/><line class="cls-1" x1="6.97917" y1="33.5" y2="33.5"/><line class="cls-1" x1="6.97917" y1="40.47917" y2="40.47917"/><line class="cls-1" x1="6.97917" y1="47.45833" y2="47.45833"/><line class="cls-1" x1="67" y1="19.54167" x2="60.02083" y2="19.54167"/><line class="cls-1" x1="67" y1="26.52083" x2="60.02083" y2="26.52083"/><line class="cls-1" x1="67" y1="33.5" x2="60.02083" y2="33.5"/><line class="cls-1" x1="67" y1="40.47917" x2="60.02083" y2="40.47917"/><line class="cls-1" x1="67" y1="47.45833" x2="60.02083" y2="47.45833"/><line class="cls-1" x1="47.45833" y1="6.97917" x2="47.45833"/><line class="cls-1" x1="40.47917" y1="6.97917" x2="40.47917"/><line class="cls-1" x1="33.5" y1="6.97917" x2="33.5"/><line class="cls-1" x1="26.52083" y1="6.97917" x2="26.52083"/><line class="cls-1" x1="19.54167" y1="6.97917" x2="19.54167"/><line class="cls-1" x1="47.45833" y1="67" x2="47.45833" y2="60.02083"/><line class="cls-1" x1="40.47917" y1="67" x2="40.47917" y2="60.02083"/><line class="cls-1" x1="33.5" y1="67" x2="33.5" y2="60.02083"/><line class="cls-1" x1="26.52083" y1="67" x2="26.52083" y2="60.02083"/><line class="cls-1" x1="19.54167" y1="67" x2="19.54167" y2="60.02083"/><rect class="cls-1" x="11.16667" y="11.16667" width="44.66667" height="44.66667"/><polygon class="cls-1" points="44.667 50.25 16.75 50.25 16.75 22.333 22.333 16.75 50.25 16.75 50.25 44.667 44.667 50.25"/><path class="cls-1" d="M1752.20833,1374.52083h5.58334a2.79161,2.79161,0,0,1,2.79166,2.79167v1.39583a2.79161,2.79161,0,0,1-2.79166,2.79167" transform="translate(-1721.5 -1348)"/><path class="cls-1" d="M30.70833,33.5h6.375a2,2,0,0,1,2,2v2.97917a2,2,0,0,1-2,2h-6.375a0,0,0,0,1,0,0V33.5A0,0,0,0,1,30.70833,33.5Z"/><line class="cls-1" x1="26.52083" y1="40.47917" x2="30.70833" y2="40.47917"/><line class="cls-1" x1="26.52083" y1="26.52083" x2="30.70833" y2="26.52083"/><line class="cls-1" x1="30.70833" y1="22.33333" x2="30.70833" y2="33.5"/><line class="cls-1" x1="30.70833" y1="40.47917" x2="30.70833" y2="44.66667"/><line class="cls-1" x1="34.89583" y1="40.47917" x2="34.89583" y2="44.66667"/><line class="cls-1" x1="34.89583" y1="22.33333" x2="34.89583" y2="26.52083"/></svg>