<svg id="Livello_1" data-name="Livello 1" xmlns="http://www.w3.org/2000/svg" viewBox="0 0 64.19245 68"><defs><style>.cls-1{fill:none;stroke:#fff;stroke-linecap:round;stroke-linejoin:round;stroke-width:2px;}</style></defs><polyline class="cls-1" points="45.026 6.553 47.907 1 52.615 10.077 63.192 11.021 55.525 18.158 57.354 27.234 47.907 23.152 45.245 24.302"/><polyline class="cls-1" points="19.166 6.553 16.285 1 11.577 10.077 1 11.021 8.667 18.158 6.839 27.234 16.285 23.152 18.947 24.302"/><polyline class="cls-1" points="37.966 25.607 41.732 27.234 39.903 18.158 47.57 11.021 36.993 10.077 32.285 1 27.577 10.077 16.999 11.021 24.667 18.158 22.838 27.234 26.604 25.607"/><path class="cls-1" d="M1758.02894,1378.99487h2.84041a3.82786,3.82786,0,0,1,2.84041,1.42021h2.84041a2.98281,2.98281,0,0,1,2.84041,2.84041h2.84041a2.98281,2.98281,0,0,1,2.84041,2.84041v14.202c0,2.8735-2.84041,5.18772-2.84041,7.101v1.42021" transform="translate(-1722.90378 -1347.5)"/><line class="cls-1" x1="40.80599" y1="32.91508" x2="40.80599" y2="40.0161"/><line class="cls-1" x1="46.48681" y1="35.75549" x2="46.48681" y2="41.43631"/><polyline class="cls-1" points="52.168 67 52.168 61.319 25.184 61.319 25.184 67"/><path class="cls-1" d="M1758.02894,1387.5161v-17.04246a2.84054,2.84054,0,0,0-2.84041-2.84041,2.80287,2.80287,0,0,0-2.84213,2.7944s.00142,17.067.00172,21.69676a.42409.42409,0,0,1-.74292.27665,35.66769,35.66769,0,0,0-4.9379-4.88494,3.7429,3.7429,0,0,0-3.67536-.24029,2.7391,2.7391,0,0,0-.76846,4.31543c3.66993,4.07017,4.9693,9.52773,8.70444,12.96732,1.49418,1.4942,1.4202,2.04155,1.4202,2.84041v1.47716" transform="translate(-1722.90378 -1347.5)"/></svg>