<svg id="Livello_1" data-name="Livello 1" xmlns="http://www.w3.org/2000/svg" viewBox="0 0 75.58946 65"><defs><style>.cls-1{fill:#fff;}</style></defs><path class="cls-1" d="M1760.75478,1364.84492a4.522,4.522,0,0,0-3.09467-7.17613v-1.4554a1.33072,1.33072,0,1,0-2.66144,0v1.41807H1753.224v-1.41807a1.33056,1.33056,0,1,0-2.66111,0v1.41807h-1.37291a1.33106,1.33106,0,0,0,0,2.66212h1.37291V1370.419h-1.37291a1.33073,1.33073,0,0,0,0,2.66145h1.37291v1.41941a1.33056,1.33056,0,0,0,2.66111,0v-1.41941h1.77471v1.41874a1.33072,1.33072,0,0,0,2.66144,0v-1.41874h.50459a4.52415,4.52415,0,0,0,2.59008-8.23557Zm-3.643-4.55134a1.86246,1.86246,0,0,1,1.4946,2.98277,1.84922,1.84922,0,0,1-1.4946.74924h-3.8878v-3.732Zm1.05294,10.12546H1753.224v-3.732h4.94074a1.866,1.866,0,0,1,0,3.732Z" transform="translate(-1717.20546 -1349)"/><path class="cls-1" d="M1755.176,1381.26962a16.13481,16.13481,0,1,1,16.1348-16.13481A16.15268,16.15268,0,0,1,1755.176,1381.26962Zm0-29.60824a13.4734,13.4734,0,1,0,13.47336,13.47343A13.4885,13.4885,0,0,0,1755.176,1351.66138Z" transform="translate(-1717.20546 -1349)"/><path class="cls-1" d="M1754.9797,1414a1.33035,1.33035,0,0,1-1.33036-1.33109v-5.98577H1731.905v5.98577a1.33073,1.33073,0,1,1-2.66145,0v-7.31612a1.33106,1.33106,0,0,1,1.33069-1.33109h24.40543a1.3314,1.3314,0,0,1,1.33109,1.33109v7.31612A1.331,1.331,0,0,1,1754.9797,1414Z" transform="translate(-1717.20546 -1349)"/><path class="cls-1" d="M1732.60127,1396.74089a2.629,2.629,0,0,1,.74113,1.85391v5.4269h2.66145v-5.4269a5.31016,5.31016,0,0,0-1.52019-3.736l-1.1635-1.1635c-9.80522-9.80944-9.97831-9.98219-9.97831-9.98219h0a4.709,4.709,0,0,1-1.12979-2.07049l-2.2289-15.00468a1.31052,1.31052,0,0,0-.031-.14856,2.47434,2.47434,0,0,1,4.76008-1.35133l1.82576,12.98258a6.34048,6.34048,0,0,0,1.78457,3.57889l10.791,10.791a1.33069,1.33069,0,1,0,1.88172-1.882l-10.79067-10.791a3.66527,3.66527,0,0,1-1.03136-2.06721l-1.83789-13.07163a1.30932,1.30932,0,0,0-.032-.159,5.13614,5.13614,0,0,0-9.94293,2.579l2.22889,15.00073a1.21463,1.21463,0,0,0,.02453.123,7.48423,7.48423,0,0,0,1.84868,3.376c.10467.104,6.453,6.455,9.975,9.97824Z" transform="translate(-1717.20546 -1349)"/><path class="cls-1" d="M1739.1142,1392.49056a1.33069,1.33069,0,1,0,1.88172-1.882l-8.73526-8.73359a2.47491,2.47491,0,1,1,3.49974-3.50035l11.79879,11.79878a6.75014,6.75014,0,0,1,1.96285,4.7385v9.10985h2.66178v-9.10985a9.42886,9.42886,0,0,0-2.74259-6.62056l-11.79878-11.79877a5.13655,5.13655,0,1,0-7.26452,7.26385Z" transform="translate(-1717.20546 -1349)"/><path class="cls-1" d="M1779.42666,1414a1.33053,1.33053,0,0,1-1.331-1.33109v-5.98577h-21.74431v5.98577a1.33073,1.33073,0,1,1-2.66145,0v-7.31612a1.3314,1.3314,0,0,1,1.33109-1.33109h24.40569a1.33122,1.33122,0,0,1,1.33043,1.33109v7.31612A1.33079,1.33079,0,0,1,1779.42666,1414Z" transform="translate(-1717.20546 -1349)"/><path class="cls-1" d="M1788.98743,1360.88709a5.14126,5.14126,0,0,0-6.29,3.63256,1.28651,1.28651,0,0,0-.03271.159l-1.83822,13.07163a3.66394,3.66394,0,0,1-1.03069,2.06721l-10.791,10.791a1.33081,1.33081,0,1,0,1.88206,1.882l10.791-10.791a6.34277,6.34277,0,0,0,1.78455-3.57889l1.82576-12.98258a2.47442,2.47442,0,0,1,4.76008,1.35194c-.0124.04844-.02225.09756-.03009.148l-2.2295,15.00468a4.69724,4.69724,0,0,1-1.10922,2.05086c-.01768.01635-.01835.01769-4.68093,4.68221l-6.48111,6.48311a5.30669,5.30669,0,0,0-1.52087,3.736v5.4269h2.66145v-5.4269a2.63017,2.63017,0,0,1,.7408-1.85391l6.48177-6.48378c2.4684-2.469,4.59719-4.59912,4.662-4.66258a7.48227,7.48227,0,0,0,1.84473-3.37142,1.12541,1.12541,0,0,0,.02419-.1237l2.22889-15.00073A5.14376,5.14376,0,0,0,1788.98743,1360.88709Z" transform="translate(-1717.20546 -1349)"/><path class="cls-1" d="M1760.47863,1404.0217v-9.10985a6.75082,6.75082,0,0,1,1.96186-4.7385l11.79944-11.79878a2.47491,2.47491,0,1,1,3.50035,3.49975l-8.7362,8.73419a1.33081,1.33081,0,1,0,1.88206,1.882l8.73619-8.73419a5.13653,5.13653,0,1,0-7.26445-7.26385l-11.79877,11.79877a9.42822,9.42822,0,0,0-2.74193,6.62056v9.10985Z" transform="translate(-1717.20546 -1349)"/></svg>