<svg id="Livello_1" data-name="Livello 1" xmlns="http://www.w3.org/2000/svg" viewBox="0 0 55.95656 68"><defs><style>.cls-1{fill:#fff;stroke:#fff;stroke-miterlimit:10;}</style></defs><g id="_7" data-name="7"><path class="cls-1" d="M1755.00013,1415a.90753.90753,0,0,1-.52055-.164l-15.6822-10.96678a23.40951,23.40951,0,0,1-9.77627-17.84982l-1.49388-25.42147a3.89853,3.89853,0,0,1,3.09458-4.00916,14.77187,14.77187,0,0,1,2.82492-.218c.21313,0,.43007.00234.6493.00691a23.59174,23.59174,0,0,0,14.116-4.32646l4.92666-3.46072a3.25,3.25,0,0,1,3.72752-.006l5.07517,3.54087a23.89065,23.89065,0,0,0,13.74494,4.28387q.26232,0,.52537-.00563.29957-.00636.59064-.00653a13.54679,13.54679,0,0,1,2.562.19831,3.8955,3.8955,0,0,1,3.10852,4.00726l-1.494,25.42343a23.40937,23.40937,0,0,1-9.7684,17.83785l-15.68968,10.9721A.90756.90756,0,0,1,1755.00013,1415Zm-21.5534-56.81259a13.04583,13.04583,0,0,0-2.46251.18152,2.04446,2.04446,0,0,0-1.64315,2.12714l1.494,25.42343a21.48328,21.48328,0,0,0,9.0109,16.46639l15.15416,10.5974,15.16164-10.60272a21.47528,21.47528,0,0,0,9.003-16.45442l1.49413-25.42545a2.06809,2.06809,0,0,0-1.65113-2.124,11.82,11.82,0,0,0-2.20552-.163q-.27162,0-.55185.00615-.28209.006-.56416.006a25.69781,25.69781,0,0,1-14.78427-4.61069l-5.07517-3.54081a1.43367,1.43367,0,0,0-1.644.00266l-4.92665,3.46073a25.41878,25.41878,0,0,1-14.67682,4.66157q-.26021,0-.52081-.0054C1733.85184,1358.18968,1733.64744,1358.18741,1733.44673,1358.18741Z" transform="translate(-1727.02172 -1347.5)"/><path class="cls-1" d="M1754.99988,1394.59034a14.603,14.603,0,1,1,14.60307-14.603A14.61956,14.61956,0,0,1,1754.99988,1394.59034Zm0-27.38945a12.78642,12.78642,0,1,0,12.78645,12.78645A12.801,12.801,0,0,0,1754.99988,1367.20089Z" transform="translate(-1727.02172 -1347.5)"/><path class="cls-1" d="M1753.29844,1385.323a.90842.90842,0,0,1-.64233-.266l-3.73589-3.73589a.90835.90835,0,0,1,1.28466-1.28454l3.02094,3.021,6.5043-8.0678a.90829.90829,0,1,1,1.41418,1.14021l-7.13878,8.85483a.90831.90831,0,0,1-.65855.337C1753.33075,1385.3226,1753.31453,1385.323,1753.29844,1385.323Z" transform="translate(-1727.02172 -1347.5)"/></g></svg>