<svg id="Livello_1" data-name="Livello 1" xmlns="http://www.w3.org/2000/svg" viewBox="0 0 62.69796 66"><defs><style>.cls-1{fill:#fff;}</style></defs><path class="cls-1" d="M1756.42115,1354.55261v-4.63145a1.42115,1.42115,0,1,0-2.8423,0v4.63145c-16.62851.69358-29.92783,13.4823-29.92783,29.10809a1.42123,1.42123,0,0,0,1.42115,1.42116h.08917a1.42138,1.42138,0,0,0,1.40034-1.17794c.41912-2.41485,2.99566-4.2357,5.99271-4.2357s5.57324,1.82085,5.99236,4.2357a1.42138,1.42138,0,0,0,1.40034,1.17794h.17834a1.42135,1.42135,0,0,0,1.40033-1.17829c.41879-2.4145,2.995-4.23535,5.99237-4.23535s5.57358,1.82085,5.99237,4.23535a1.42327,1.42327,0,0,0,.06835.25164v22.7793a7.5742,7.5742,0,0,0,7.56549,7.56549h.68281a7.57421,7.57421,0,0,0,7.5655-7.56549,1.42116,1.42116,0,0,0-2.84231,0,4.72863,4.72863,0,0,1-4.72319,4.72318h-.68281a4.72863,4.72863,0,0,1-4.72319-4.72318v-22.77909a1.42363,1.42363,0,0,0,.06835-.2515c.41913-2.41485,2.99567-4.2357,5.99272-4.2357s5.57323,1.82085,5.99236,4.2357a1.42138,1.42138,0,0,0,1.40034,1.17794h.17834a1.42136,1.42136,0,0,0,1.40034-1.17829c.41877-2.4145,2.995-4.23535,5.99236-4.23535s5.57359,1.82085,5.99236,4.23535a1.42136,1.42136,0,0,0,1.40034,1.17829h.08917a1.42123,1.42123,0,0,0,1.42115-1.42116C1786.349,1368.03491,1773.04966,1355.24619,1756.42115,1354.55261Zm21.02481,22.2733a9.67407,9.67407,0,0,1-14.96374,0,9.67444,9.67444,0,0,1-14.96409,0,9.67407,9.67407,0,0,1-14.96374,0,9.74139,9.74139,0,0,0-5.5035,1.64425c2.61955-12.02428,14.156-21.10877,27.94911-21.10877s25.32955,9.08414,27.94911,21.10843A9.7435,9.7435,0,0,0,1777.446,1376.82591Z" transform="translate(-1723.65102 -1348.5)"/></svg>