<svg id="Livello_1" data-name="Livello 1" xmlns="http://www.w3.org/2000/svg" viewBox="0 0 87.41455 59.67809"><defs><style>.cls-1{fill:#fff;}</style></defs><path class="cls-1" d="M1778.97259,1359.01323a30.5799,30.5799,0,0,1,3.26366,3.47154,20.00341,20.00341,0,0,1,0,38.03053,30.58514,30.58514,0,0,1-3.26366,3.47147,22.67867,22.67867,0,0,0,0-44.97354Z" transform="translate(-1711.29273 -1351.66095)"/><path class="cls-1" d="M1760.454,1354.54579a33.43219,33.43219,0,0,1,3.93319,3.30962,24.34731,24.34731,0,0,1,0,47.28918,33.43172,33.43172,0,0,1-3.93319,3.30968,27.01895,27.01895,0,0,0,0-53.90848Z" transform="translate(-1711.29273 -1351.66095)"/><path class="cls-1" d="M1741.13177,1411.33905A29.83905,29.83905,0,1,1,1770.97082,1381.5,29.87333,29.87333,0,0,1,1741.13177,1411.33905Zm0-57.00114A27.16209,27.16209,0,1,0,1768.29452,1381.5,27.19295,27.19295,0,0,0,1741.13177,1354.33791Z" transform="translate(-1711.29273 -1351.66095)"/><path class="cls-1" d="M1741.13177,1403.56525A22.06522,22.06522,0,1,1,1763.19768,1381.5,22.09038,22.09038,0,0,1,1741.13177,1403.56525Zm0-41.45413a19.38892,19.38892,0,1,0,19.389,19.38888A19.41092,19.41092,0,0,0,1741.13177,1362.11112Z" transform="translate(-1711.29273 -1351.66095)"/><path class="cls-1" d="M1742.63281,1356.89963a1.50134,1.50134,0,1,1-1.501-1.50164A1.50178,1.50178,0,0,1,1742.63281,1356.89963Z" transform="translate(-1711.29273 -1351.66095)"/><path class="cls-1" d="M1730.13192,1359.44516a1.50163,1.50163,0,1,1-2.05148-.54976A1.50117,1.50117,0,0,1,1730.13192,1359.44516Z" transform="translate(-1711.29273 -1351.66095)"/><path class="cls-1" d="M1720.57731,1367.8989a1.50189,1.50189,0,1,1-2.05013.54977A1.50078,1.50078,0,0,1,1720.57731,1367.8989Z" transform="translate(-1711.29273 -1351.66095)"/><path class="cls-1" d="M1716.5314,1379.99837a1.50167,1.50167,0,1,1-1.5023,1.50163A1.50134,1.50134,0,0,1,1716.5314,1379.99837Z" transform="translate(-1711.29273 -1351.66095)"/><path class="cls-1" d="M1719.07627,1392.49927a1.50192,1.50192,0,1,1-.54975,2.05213A1.50175,1.50175,0,0,1,1719.07627,1392.49927Z" transform="translate(-1711.29273 -1351.66095)"/><path class="cls-1" d="M1727.53067,1402.05387a1.5018,1.5018,0,1,1,.54911,2.05146A1.50156,1.50156,0,0,1,1727.53067,1402.05387Z" transform="translate(-1711.29273 -1351.66095)"/><path class="cls-1" d="M1739.63014,1406.10037a1.50134,1.50134,0,1,1,1.501,1.5017A1.50181,1.50181,0,0,1,1739.63014,1406.10037Z" transform="translate(-1711.29273 -1351.66095)"/><path class="cls-1" d="M1752.13171,1403.55557a1.5015,1.5015,0,1,1,2.0508.54976A1.5023,1.5023,0,0,1,1752.13171,1403.55557Z" transform="translate(-1711.29273 -1351.66095)"/><path class="cls-1" d="M1761.685,1395.10117a1.50223,1.50223,0,1,1,2.05147-.54977A1.50331,1.50331,0,0,1,1761.685,1395.10117Z" transform="translate(-1711.29273 -1351.66095)"/><path class="cls-1" d="M1765.73214,1383.0017a1.50167,1.50167,0,1,1,1.5017-1.501A1.50255,1.50255,0,0,1,1765.73214,1383.0017Z" transform="translate(-1711.29273 -1351.66095)"/><path class="cls-1" d="M1763.18727,1370.50073a1.5022,1.5022,0,1,1,.54917-2.05074A1.50189,1.50189,0,0,1,1763.18727,1370.50073Z" transform="translate(-1711.29273 -1351.66095)"/><path class="cls-1" d="M1754.73228,1360.9462a1.50134,1.50134,0,1,1-.54977-2.0508A1.50241,1.50241,0,0,1,1754.73228,1360.9462Z" transform="translate(-1711.29273 -1351.66095)"/><path class="cls-1" d="M1747.92778,1380.90236c.13083-.14442.25907-.29077.37756-.44812a5.92,5.92,0,0,0,1.185-3.56218,5.95325,5.95325,0,0,0-5.94646-5.94646h-1.82024v-2.62319a1.33848,1.33848,0,1,0-2.677,0v2.62319h-1.6869v-2.62319a1.33848,1.33848,0,1,0-2.677,0v2.62319h-2.55714a1.33851,1.33851,0,1,0,0,2.677h2.55714v15.75482h-2.55714a1.33848,1.33848,0,1,0,0,2.677h2.55714v2.62325a1.33848,1.33848,0,0,0,2.677,0v-2.62325h1.6869v2.62259a1.33848,1.33848,0,1,0,2.677,0v-2.62259h3.33746a5.94377,5.94377,0,0,0,2.86667-11.152Zm-4.38389-7.27974a3.2728,3.2728,0,0,1,3.2695,3.26944,3.26951,3.26951,0,0,1-3.2695,3.26949h-6.1841v-6.53893Zm1.51722,15.75482h-7.70132v-6.53893h7.70132a3.26947,3.26947,0,1,1,0,6.53893Z" transform="translate(-1711.29273 -1351.66095)"/></svg>