<svg id="Livello_1" data-name="Livello 1" xmlns="http://www.w3.org/2000/svg" viewBox="0 0 51.06102 72.25052"><defs><style>.cls-1{fill:none;stroke:#fff;stroke-miterlimit:10;stroke-width:3px;}</style></defs><polyline class="cls-1" points="18.977 26.259 23.346 30.628 32.084 20.433"/><path class="cls-1" d="M1760.664,1349.22087h0a8.01017,8.01017,0,0,0,5.664,2.34612h0a8.01018,8.01018,0,0,1,8.01017,8.01017h0a8.01015,8.01015,0,0,0,2.34612,5.664h0a8.01016,8.01016,0,0,1,0,11.32809h0a8.01017,8.01017,0,0,0-2.34612,5.66405h0a8.01018,8.01018,0,0,1-8.01017,8.01017h0a8.01017,8.01017,0,0,0-5.664,2.34612h0a8.01015,8.01015,0,0,1-11.32808,0h0a8.01017,8.01017,0,0,0-5.664-2.34612h0a8.01018,8.01018,0,0,1-8.01017-8.01017h0a8.01017,8.01017,0,0,0-2.34612-5.66405h0a8.01016,8.01016,0,0,1,0-11.32809h0a8.01015,8.01015,0,0,0,2.34612-5.664h0a8.01018,8.01018,0,0,1,8.01017-8.01017h0a8.01017,8.01017,0,0,0,5.664-2.34612h0A8.01015,8.01015,0,0,1,1760.664,1349.22087Z" transform="translate(-1729.46949 -1345.37474)"/><polyline class="cls-1" points="35.59 44.971 45.288 62.974 37.58 60.95 35.031 68.5 27.127 53.828"/><polyline class="cls-1" points="17.36 45.518 7.956 62.974 15.663 60.95 18.213 68.5 23.478 58.727"/><circle class="cls-1" cx="25.53051" cy="25.53051" r="13.83574"/></svg>