<svg id="Livello_1" data-name="Livello 1" xmlns="http://www.w3.org/2000/svg" viewBox="0 0 14.40479 17.62891"><defs><style>.cls-1{fill:#fff;}</style></defs><path class="cls-1" d="M1758.51514,1388.0293a1.81428,1.81428,0,0,1-1.48243-.78028l-3.92578-5.71972-3.95214,5.74609a1.79064,1.79064,0,0,1-3.25049-1.01367,1.795,1.795,0,0,1,.312-1.01465l4.42041-6.26562-4.1084-5.877a1.53,1.53,0,0,1-.28564-.93554,1.77451,1.77451,0,0,1,1.79394-1.76856,1.86539,1.86539,0,0,1,1.53418.80664l3.53613,5.252,3.48389-5.22656a1.84243,1.84243,0,0,1,3.38037.91016,1.71391,1.71391,0,0,1-.3125.98828l-4.082,5.82422,4.42041,6.2666a1.78961,1.78961,0,0,1,.312,1.01367A1.82772,1.82772,0,0,1,1758.51514,1388.0293Z" transform="translate(-1745.9043 -1370.40039)"/></svg>