<svg id="Livello_1" data-name="Livello 1" xmlns="http://www.w3.org/2000/svg" viewBox="0 0 25.00009 25"><defs><style>.cls-1{fill:#fff;}</style></defs><path class="cls-1" d="M1755,1394A12.5,12.5,0,1,1,1767.5,1381.5,12.51413,12.51413,0,0,1,1755,1394Zm0-24.17768A11.67768,11.67768,0,1,0,1766.67773,1381.5,11.69089,11.69089,0,0,0,1755,1369.82232Z" transform="translate(-1742.49996 -1369)"/><path class="cls-1" d="M1761.78576,1378.043a5.11686,5.11686,0,0,1-1.47292.40356,2.57319,2.57319,0,0,0,1.12779-1.41847,5.13389,5.13389,0,0,1-1.62845.62215,2.5664,2.5664,0,0,0-4.36976,2.33905,7.27935,7.27935,0,0,1-5.28548-2.67948,2.567,2.567,0,0,0,.79343,3.42377,2.54991,2.54991,0,0,1-1.16132-.32105l-.00033.03248a2.56586,2.56586,0,0,0,2.05719,2.51417,2.56972,2.56972,0,0,1-1.15809.04434,2.56694,2.56694,0,0,0,2.39551,1.78061,5.17774,5.17774,0,0,1-3.79632,1.062,7.2924,7.2924,0,0,0,11.22669-6.14406q0-.16661-.00755-.33163a5.204,5.204,0,0,0,1.27961-1.3274Zm0,0" transform="translate(-1742.49996 -1369)"/></svg>