<svg id="Livello_1" data-name="Livello 1" xmlns="http://www.w3.org/2000/svg" viewBox="0 0 24.99999 25"><defs><style>.cls-1{fill:#fff;}</style></defs><path class="cls-1" d="M1755,1394a12.5,12.5,0,1,1,12.5-12.5A12.51415,12.51415,0,0,1,1755,1394Zm0-24.17768A11.67768,11.67768,0,1,0,1766.67768,1381.5,11.69089,11.69089,0,0,0,1755,1369.82232Z" transform="translate(-1742.50001 -1369)"/><path class="cls-1" d="M1760.8509,1382.32148v4.19284h-2.43074v-3.91166c0-.98233-.351-1.653-1.23111-1.653a1.32973,1.32973,0,0,0-1.24689.88894,1.66454,1.66454,0,0,0-.08051.59249v4.08327h-2.43108s.03262-6.62525,0-7.31118h2.43108v1.036c-.00487.00829-.0118.01613-.01613.024h.01613v-.024a2.41372,2.41372,0,0,1,2.19076-1.20773c1.59944,0,2.79849,1.0449,2.79849,3.29006Zm-11.19458,4.19284h2.43017v-7.31118h-2.43017Zm0,0,2.50268-9.79192a1.25134,1.25134,0,1,1-1.25134-1.25134A1.2513,1.2513,0,0,1,1752.159,1376.7224Z" transform="translate(-1742.50001 -1369)"/></svg>