<svg id="Livello_1" data-name="Livello 1" xmlns="http://www.w3.org/2000/svg" viewBox="0 0 27.39785 25"><defs><style>.cls-1{fill:#fff;fill-rule:evenodd;}</style></defs><path class="cls-1" d="M1755,1368.94879c7.56592,0,13.69892,5.73748,13.69892,12.8162a12.92576,12.92576,0,0,1-9.36047,12.16c-.69454.12627-.94111-.27373-.94111-.615,0-.42249.01643-1.80251.01643-3.5175a2.95876,2.95876,0,0,0-.93017-2.37249c3.05077-.3175,6.25632-1.40124,6.25632-6.32372a4.77353,4.77353,0,0,0-1.411-3.44,4.32241,4.32241,0,0,0-.13427-3.3925s-1.148-.34373-3.76308,1.31377a14.02861,14.02861,0,0,0-3.43158-.43126,13.76075,13.76075,0,0,0-3.42884.43126c-2.61788-1.6575-3.76858-1.31377-3.76858-1.31377a4.33928,4.33928,0,0,0-.13289,3.3925,4.79009,4.79009,0,0,0-1.411,3.44c0,4.91,3.19871,6.01,6.24125,6.33372a2.66829,2.66829,0,0,0-.8699,1.71375,3.0334,3.0334,0,0,1-3.98637-1.065,2.86643,2.86643,0,0,0-2.10005-1.32123s-1.33564-.01626-.09316.77873a3.46571,3.46571,0,0,1,1.52057,1.875s.80416,2.28748,4.61519,1.51249c.00685,1.07124.01917,2.08124.01917,2.38625,0,.33874-.25207.735-.93564.61625a12.92648,12.92648,0,0,1-9.36868-12.16122c0-7.07872,6.13436-12.8162,13.69892-12.8162" transform="translate(-1741.30108 -1368.94879)"/></svg>