<svg id="Livello_1" data-name="Livello 1" xmlns="http://www.w3.org/2000/svg" viewBox="0 0 14.76705 18.38531"><defs><style>.cls-1{fill:#b3b3b3;}</style></defs><path class="cls-1" d="M1755,1315.30734a7.39169,7.39169,0,0,0-7.38352,7.38353c0,3.50791,3.80683,7.72379,7.00026,10.64266l.39326.35913.38383-.36912c3.5367-3.40278,6.98969-7.02662,6.98969-10.63267A7.39169,7.39169,0,0,0,1755,1315.30734Zm-.00858,16.82563c-4.02788-3.76111-6.239-7.10261-6.239-9.4421a6.2476,6.2476,0,0,1,12.4952,0C1761.2476,1325.73009,1758.2128,1329.01059,1754.99142,1332.133Z" transform="translate(-1747.61648 -1315.30734)"/><path class="cls-1" d="M1755,1319.85105a2.83982,2.83982,0,1,0,2.83982,2.83982A2.84319,2.84319,0,0,0,1755,1319.85105Zm0,4.54371a1.70389,1.70389,0,1,1,1.70389-1.70389A1.70575,1.70575,0,0,1,1755,1324.39476Z" transform="translate(-1747.61648 -1315.30734)"/></svg>