<svg id="Livello_1" data-name="Livello 1" xmlns="http://www.w3.org/2000/svg" viewBox="0 0 53 49.68751"><defs><style>.cls-1{fill:#ccc;}</style></defs><path class="cls-1" d="M1774.875,1356.65625h-39.75a6.63252,6.63252,0,0,0-6.625,6.625V1388.125a6.63253,6.63253,0,0,0,6.625,6.625h4.96875v9.9375a1.65624,1.65624,0,0,0,2.74722,1.24616l12.78178-11.18366H1774.875a6.63253,6.63253,0,0,0,6.625-6.625v-24.84375A6.63252,6.63252,0,0,0,1774.875,1356.65625Zm3.3125,31.46875a3.31584,3.31584,0,0,1-3.3125,3.3125H1755a1.65678,1.65678,0,0,0-1.091.41008l-10.50278,9.1902v-7.944a1.65643,1.65643,0,0,0-1.65625-1.65625h-6.625a3.31584,3.31584,0,0,1-3.3125-3.3125v-24.84375a3.31583,3.31583,0,0,1,3.3125-3.3125h39.75a3.31583,3.31583,0,0,1,3.3125,3.3125Z" transform="translate(-1728.5 -1356.65625)"/><path class="cls-1" d="M1763.28125,1378.1875H1748.375a1.65625,1.65625,0,0,0,0,3.3125h14.90625a1.65625,1.65625,0,0,0,0-3.3125Z" transform="translate(-1728.5 -1356.65625)"/><path class="cls-1" d="M1763.28125,1369.90625H1748.375a1.65625,1.65625,0,0,0,0,3.3125h14.90625a1.65625,1.65625,0,0,0,0-3.3125Z" transform="translate(-1728.5 -1356.65625)"/></svg>