<svg id="Livello_1" data-name="Livello 1" xmlns="http://www.w3.org/2000/svg" viewBox="0 0 19.47826 14"><defs><style>.cls-1{fill:#b3b3b3;}</style></defs><path class="cls-1" d="M1762.30435,1317.5h-14.6087a2.43754,2.43754,0,0,0-2.43478,2.43478v9.13044a2.43754,2.43754,0,0,0,2.43478,2.43478h14.6087a2.43754,2.43754,0,0,0,2.43478-2.43478v-9.13044A2.43754,2.43754,0,0,0,1762.30435,1317.5Zm1.21739,11.56522a1.21862,1.21862,0,0,1-1.21739,1.21739h-14.6087a1.21862,1.21862,0,0,1-1.21739-1.21739v-9.13044a1.21862,1.21862,0,0,1,1.21739-1.21739h14.6087a1.21862,1.21862,0,0,1,1.21739,1.21739Z" transform="translate(-1745.26087 -1317.5)"/><path class="cls-1" d="M1761.31017,1320.6811,1755,1325.844l-6.31017-5.1629a.60869.60869,0,0,0-.771.94214l6.69565,5.47826a.60868.60868,0,0,0,.771,0l6.69565-5.47826a.60869.60869,0,0,0-.771-.94214Z" transform="translate(-1745.26087 -1317.5)"/></svg>