<svg id="Livello_1" data-name="Livello 1" xmlns="http://www.w3.org/2000/svg" viewBox="0 0 243.99407 54"><defs><style>.cls-1{fill:#67a3be;}.cls-2{fill:#fff;}.cls-3{fill:#fcc800;}.cls-4{fill:none;}.cls-5{fill:#afcbd7;}</style></defs><path class="cls-1" d="M1639.01393,1343.86889v.88324h-2.49816v6.53135h-1.01464v-6.53135H1633.003v-.88324Z" transform="translate(-1633.00297 -1297.5)"/><path class="cls-1" d="M1641.60989,1343.86889h3.36946a3.30385,3.30385,0,0,1,1.373.24788,1.75368,1.75368,0,0,1,1.02584,1.7508,1.97605,1.97605,0,0,1-.27475,1.0908,1.99661,1.99661,0,0,1-.76976.68091,1.51879,1.51879,0,0,1,.65328.46439,1.67169,1.67169,0,0,1,.24489.934l.03509.99374a3.0476,3.0476,0,0,0,.07093.63088.619.619,0,0,0,.32328.45469v.16649h-1.2319a.93091.93091,0,0,1-.08064-.24713,4.74946,4.74946,0,0,1-.05077-.58608l-.06047-1.23639a1.0431,1.0431,0,0,0-.52412-.97358,2.11244,2.11244,0,0,0-.878-.13663h-2.22116v3.17981h-1.0042Zm3.262,3.39708a1.84986,1.84986,0,0,0,1.08706-.283,1.16494,1.16494,0,0,0,.40019-1.01913,1.10077,1.10077,0,0,0-.56-1.08034,1.784,1.784,0,0,0-.79962-.15157h-2.38542v2.534Z" transform="translate(-1633.00297 -1297.5)"/><path class="cls-1" d="M1652.6672,1343.86889h1.13335l2.69079,7.41459h-1.09976l-.77423-2.22116h-2.9088l-.8041,2.22116h-1.02958Zm1.66494,4.37589-1.14157-3.27538-1.18562,3.27538Z" transform="translate(-1633.00297 -1297.5)"/><path class="cls-1" d="M1658.94769,1343.86889h1.18338l3.69721,5.99081v-5.99081h.9594v7.41459h-1.12888l-3.75172-5.98333v5.98333h-.95939Z" transform="translate(-1633.00297 -1297.5)"/><path class="cls-1" d="M1668.61928,1348.89134a2.0787,2.0787,0,0,0,.2867,1.02435,1.87134,1.87134,0,0,0,1.6963.73691,2.89072,2.89072,0,0,0,.99225-.162,1.13638,1.13638,0,0,0,.86532-1.11991.9809.9809,0,0,0-.36659-.86309,3.63018,3.63018,0,0,0-1.164-.439l-.97284-.22772a4.3071,4.3071,0,0,1-1.34912-.489,1.565,1.565,0,0,1-.68465-1.388,2.16532,2.16532,0,0,1,.6727-1.6403,2.65437,2.65437,0,0,1,1.90535-.64134,3.24771,3.24771,0,0,1,1.92775.56294,2.05439,2.05439,0,0,1,.79365,1.79934h-.94372a1.91642,1.91642,0,0,0-.30984-.91386,1.76269,1.76269,0,0,0-1.49546-.58011,1.68492,1.68492,0,0,0-1.22445.3733,1.19471,1.19471,0,0,0-.37255.86831.85264.85264,0,0,0,.4405.79738,6.28433,6.28433,0,0,0,1.30582.40392l1.00718.23742a3.02271,3.02271,0,0,1,1.12439.46887,1.77755,1.77755,0,0,1,.68464,1.5089,1.89874,1.89874,0,0,1-.87353,1.762,3.8385,3.8385,0,0,1-2.03.52935,2.98636,2.98636,0,0,1-2.11141-.70629,2.413,2.413,0,0,1-.74885-1.90237Z" transform="translate(-1633.00297 -1297.5)"/><path class="cls-1" d="M1676.50349,1343.86889h3.31719a2.2539,2.2539,0,0,1,1.58879.55772,2.02623,2.02623,0,0,1,.6055,1.56714,2.279,2.279,0,0,1-.5398,1.51188,2.03569,2.03569,0,0,1-1.65225.64358h-2.31524v3.13427h-1.00419Zm3.89507,1.01987a2.15106,2.15106,0,0,0-.90639-.15679h-1.98449v2.56909h1.98449a1.88353,1.88353,0,0,0,1.08931-.28744,1.14355,1.14355,0,0,0,.41885-1.01465A1.11685,1.11685,0,0,0,1680.39856,1344.88876Z" transform="translate(-1633.00297 -1297.5)"/><path class="cls-1" d="M1687.01577,1343.86889h1.1341l2.69078,7.41459h-1.1005l-.77349-2.22116h-2.90879l-.8041,2.22116h-1.02958Zm1.66569,4.37589-1.14157-3.27538-1.18637,3.27538Z" transform="translate(-1633.00297 -1297.5)"/><path class="cls-1" d="M1693.418,1343.86889h3.37021a3.30859,3.30859,0,0,1,1.373.24788,1.75368,1.75368,0,0,1,1.02585,1.7508,1.82376,1.82376,0,0,1-1.04526,1.77171,1.51691,1.51691,0,0,1,.654.46439,1.67169,1.67169,0,0,1,.24489.934l.03509.99374a2.996,2.996,0,0,0,.07093.63088.62019.62019,0,0,0,.32253.45469v.16649h-1.23116a.93129.93129,0,0,1-.08063-.24713,4.74946,4.74946,0,0,1-.05077-.58608l-.06048-1.23639a1.04357,1.04357,0,0,0-.52486-.97358,2.11007,2.11007,0,0,0-.878-.13663h-2.22116v3.17981h-1.0042Zm3.262,3.39708a1.84826,1.84826,0,0,0,1.08706-.283,1.16494,1.16494,0,0,0,.40019-1.01913,1.10152,1.10152,0,0,0-.55922-1.08034,1.78965,1.78965,0,0,0-.80036-.15157h-2.38542v2.534Z" transform="translate(-1633.00297 -1297.5)"/><path class="cls-1" d="M1702.40789,1343.86889h5.38008v.90863h-4.40127v2.251h4.06828v.85785h-4.06828v2.51384h4.47668v.88324h-5.45549Z" transform="translate(-1633.00297 -1297.5)"/><path class="cls-1" d="M1710.75649,1343.86889h1.18264l3.698,5.99081v-5.99081h.95865v7.41459h-1.12813l-3.75247-5.98333v5.98333h-.95865Z" transform="translate(-1633.00297 -1297.5)"/><path class="cls-1" d="M1725.1616,1343.86889v.88324h-2.49816v6.53135h-1.01464v-6.53135h-2.49816v-.88324Z" transform="translate(-1633.00297 -1297.5)"/><path class="cls-1" d="M1732.03266,1343.86889h3.20594a2.13365,2.13365,0,0,1,1.86429.77722,1.79217,1.79217,0,0,1,.32478,1.06019,1.66752,1.66752,0,0,1-.39869,1.15053,1.94959,1.94959,0,0,1-.59505.43453,2.51141,2.51141,0,0,1,.85263.489,1.77771,1.77771,0,0,1,.49948,1.33792,2.06016,2.06016,0,0,1-.4517,1.29686,2.55278,2.55278,0,0,1-2.148.86831h-3.15368Zm2.8304,3.13427a2.29561,2.29561,0,0,0,.99971-.1762,1.01582,1.01582,0,0,0,.56071-.99971.96144.96144,0,0,0-.59655-.9788,2.713,2.713,0,0,0-.99971-.14111h-1.81053v2.29582Zm.33971,3.42247a1.549,1.549,0,0,0,1.32971-.53532,1.33776,1.33776,0,0,0,.24937-.81754,1.08826,1.08826,0,0,0-.72869-1.10051,2.79373,2.79373,0,0,0-1.02361-.156h-2.01286v2.60941Z" transform="translate(-1633.00297 -1297.5)"/><path class="cls-1" d="M1740.72918,1343.86889h1.01464v7.41459h-1.01464Z" transform="translate(-1633.00297 -1297.5)"/><path class="cls-1" d="M1750.31491,1343.86889v.88324h-2.49816v6.53135h-1.01464v-6.53135H1744.304v-.88324Z" transform="translate(-1633.00297 -1297.5)"/><path class="cls-1" d="M1758.03263,1344.40944a2.63129,2.63129,0,0,1,.85337,1.68585h-.97955a1.86463,1.86463,0,0,0-2.02182-1.55445,2.17822,2.17822,0,0,0-1.73736.76976,3.55789,3.55789,0,0,0-.6615,2.36153,3.47461,3.47461,0,0,0,.59729,2.1144,2.07059,2.07059,0,0,0,1.78216.81007,1.87257,1.87257,0,0,0,1.66121-.85263,3.27864,3.27864,0,0,0,.451-1.18114h.9788a3.36256,3.36256,0,0,1-.85785,1.96359,3.034,3.034,0,0,1-2.35481.95342,3.085,3.085,0,0,1-2.145-.78245,4.85972,4.85972,0,0,1-.28446-5.88851,3.1173,3.1173,0,0,1,2.55863-1.14157A2.97975,2.97975,0,0,1,1758.03263,1344.40944Z" transform="translate(-1633.00297 -1297.5)"/><path class="cls-1" d="M1767.91029,1344.92908a4.08892,4.08892,0,0,1,.73765,2.51832,4.40222,4.40222,0,0,1-.84367,2.761,3.745,3.745,0,0,1-5.51074.16127,4.267,4.267,0,0,1-.87278-2.75574,4.38061,4.38061,0,0,1,.74661-2.57357,3.23466,3.23466,0,0,1,2.83562-1.373A3.39248,3.39248,0,0,1,1767.91029,1344.92908Zm-.88548,4.726a4.054,4.054,0,0,0,.59281-2.18981,3.11881,3.11881,0,0,0-.6839-2.10619,2.332,2.332,0,0,0-1.86951-.79813,2.43313,2.43313,0,0,0-1.877.78991,3.33473,3.33473,0,0,0-.7272,2.33167,3.4118,3.4118,0,0,0,.62267,2.07856,2.34678,2.34678,0,0,0,2.02182.84591A2.09019,2.09019,0,0,0,1767.02481,1349.65513Z" transform="translate(-1633.00297 -1297.5)"/><path class="cls-1" d="M1771.62169,1343.86889h1.0139v7.41459h-1.0139Z" transform="translate(-1633.00297 -1297.5)"/><path class="cls-1" d="M1775.81689,1343.86889h1.18263l3.69722,5.99081v-5.99081h.9594v7.41459h-1.12888l-3.75172-5.98333v5.98333h-.95865Z" transform="translate(-1633.00297 -1297.5)"/><path class="cls-1" d="M1794.49709,1344.40944a2.63126,2.63126,0,0,1,.85338,1.68585h-.97956a1.86476,1.86476,0,0,0-2.02256-1.55445,2.17672,2.17672,0,0,0-1.73662.76976,3.55781,3.55781,0,0,0-.66224,2.36153,3.47479,3.47479,0,0,0,.598,2.1144,2.07062,2.07062,0,0,0,1.78216.81007,1.87129,1.87129,0,0,0,1.66046-.85263,3.27834,3.27834,0,0,0,.4517-1.18114h.97881a3.36725,3.36725,0,0,1-.85786,1.96359,3.03512,3.03512,0,0,1-2.35481.95342,3.0837,3.0837,0,0,1-2.145-.78245,4.85682,4.85682,0,0,1-.28446-5.88851,3.11732,3.11732,0,0,1,2.55864-1.14157A2.97972,2.97972,0,0,1,1794.49709,1344.40944Z" transform="translate(-1633.00297 -1297.5)"/><path class="cls-1" d="M1799.35379,1343.86889v4.5827a2.67612,2.67612,0,0,0,.30537,1.34315,1.6061,1.6061,0,0,0,1.52607.80709,1.79808,1.79808,0,0,0,1.75006-.87279,2.76874,2.76874,0,0,0,.24936-1.27745v-4.5827h1.0139v4.16385a4.80343,4.80343,0,0,1-.36957,2.1047,3.11245,3.11245,0,0,1-5.12026,0,4.80343,4.80343,0,0,1-.36957-2.1047v-4.16385Z" transform="translate(-1633.00297 -1297.5)"/><path class="cls-1" d="M1807.93907,1348.89134a2.09445,2.09445,0,0,0,.2867,1.02435,1.87272,1.87272,0,0,0,1.697.73691,2.89368,2.89368,0,0,0,.99225-.162,1.13638,1.13638,0,0,0,.86532-1.11991.97942.97942,0,0,0-.36733-.86309,3.61769,3.61769,0,0,0-1.16322-.439l-.97283-.22772a4.313,4.313,0,0,1-1.34988-.489,1.5667,1.5667,0,0,1-.68464-1.388,2.16588,2.16588,0,0,1,.67345-1.6403,2.65315,2.65315,0,0,1,1.90535-.64134,3.2477,3.2477,0,0,1,1.92774.56294,2.054,2.054,0,0,1,.7929,1.79934h-.94371a1.90844,1.90844,0,0,0-.30984-.91386,1.76017,1.76017,0,0,0-1.49472-.58011,1.68369,1.68369,0,0,0-1.22444.3733,1.1918,1.1918,0,0,0-.37256.86831.85264.85264,0,0,0,.4405.79738,6.28835,6.28835,0,0,0,1.30508.40392l1.00792.23742a3.03372,3.03372,0,0,1,1.1244.46887,1.77951,1.77951,0,0,1,.68464,1.5089,1.89875,1.89875,0,0,1-.87354,1.762,3.83929,3.83929,0,0,1-2.03078.52935,2.98759,2.98759,0,0,1-2.11141-.70629,2.41508,2.41508,0,0,1-.74811-1.90237Z" transform="translate(-1633.00297 -1297.5)"/><path class="cls-1" d="M1821.11824,1343.86889v.88324h-2.49816v6.53135h-1.01464v-6.53135h-2.49816v-.88324Z" transform="translate(-1633.00297 -1297.5)"/><path class="cls-1" d="M1829.699,1344.92908a4.08866,4.08866,0,0,1,.7369,2.51832,4.40639,4.40639,0,0,1-.84292,2.761,3.74589,3.74589,0,0,1-5.51148.16127,4.27122,4.27122,0,0,1-.87279-2.75574,4.38061,4.38061,0,0,1,.74661-2.57357,3.236,3.236,0,0,1,2.83638-1.373A3.39432,3.39432,0,0,1,1829.699,1344.92908Zm-.88548,4.726a4.06057,4.06057,0,0,0,.59281-2.18981,3.12264,3.12264,0,0,0-.6839-2.10619,2.33359,2.33359,0,0,0-1.87026-.79813,2.43534,2.43534,0,0,0-1.877.78991,3.33473,3.33473,0,0,0-.7272,2.33167,3.41219,3.41219,0,0,0,.62342,2.07856,2.345,2.345,0,0,0,2.02182.84591A2.091,2.091,0,0,0,1828.81356,1349.65513Z" transform="translate(-1633.00297 -1297.5)"/><path class="cls-1" d="M1833.22752,1343.86889h2.964a2.77927,2.77927,0,0,1,2.34063,1.08557,4.04049,4.04049,0,0,1,.74213,2.50862,5.0591,5.0591,0,0,1-.43826,2.13456,2.70308,2.70308,0,0,1-2.655,1.68584h-2.95359Zm2.76694,6.55674a2.67324,2.67324,0,0,0,.819-.106,1.811,1.811,0,0,0,.93774-.75706,3.151,3.151,0,0,0,.4196-1.15128,4.49105,4.49105,0,0,0,.07391-.77722,3.68351,3.68351,0,0,0-.53532-2.13979,1.96283,1.96283,0,0,0-1.72541-.76229h-1.74185v5.69366Z" transform="translate(-1633.00297 -1297.5)"/><path class="cls-1" d="M1841.6254,1343.86889h1.17143l2.13157,3.56358,2.13083-3.56358h1.18188l-2.808,4.42666v2.98793h-1.00494v-2.98793Z" transform="translate(-1633.00297 -1297.5)"/><path class="cls-2" d="M1678.11386,1316.183c0-12.29775,8.37147-18.54119,18.11551-18.54119a20.66613,20.66613,0,0,1,10.12158,2.31755l-1.04013,4.919a20.53791,20.53791,0,0,0-9.08145-1.84449c-6.66951,0-11.02108,4.72988-11.02108,12.81819,0,8.13533,4.25681,12.67605,10.83155,12.67605a16.50617,16.50617,0,0,0,8.65577-2.22317l1.183,4.77725a22.05848,22.05848,0,0,1-11.352,2.88539C1685.39782,1333.96756,1678.11386,1328.57547,1678.11386,1316.183Z" transform="translate(-1633.00297 -1297.5)"/><path class="cls-2" d="M1733.16885,1319.35226v13.95309h-6.66951v-14.42616c0-4.2098-1.32443-5.81776-4.63511-5.81776a6.3888,6.3888,0,0,0-4.49372,1.98625v18.25767H1710.701v-35.33267l6.66952-.47268v12.81781a13.61727,13.61727,0,0,1,7.33134-2.36494c5.10817,0,7.89917,2.36494,8.37223,7.28434C1733.16885,1316.32511,1733.16885,1317.74392,1733.16885,1319.35226Z" transform="translate(-1633.00297 -1297.5)"/><path class="cls-2" d="M1757.43113,1327.77149l.99275,4.3042a19.00837,19.00837,0,0,1-8.70239,1.89187c-8.0887,0-12.01459-3.83113-12.01459-12.77081,0-8.561,4.068-13.24388,11.49415-13.24388,7.00042,0,9.45974,4.49335,9.838,10.64241.09477,1.561.09477,2.64885.09477,4.02028h-14.8996c.3783,4.49372,2.31793,6.19644,6.71689,6.19644A19.01194,19.01194,0,0,0,1757.43113,1327.77149Zm-13.00734-9.17621h8.23009c-.18954-3.642-.94613-5.53385-3.73713-5.53385C1745.8896,1313.06143,1744.61256,1314.85853,1744.42379,1318.59528Z" transform="translate(-1633.00297 -1297.5)"/><path class="cls-2" d="M1762.86869,1321.14937c0-8.98669,4.872-13.1965,12.58166-13.1965a14.28568,14.28568,0,0,1,7.19,1.65573l-.71,4.30419a15.46931,15.46931,0,0,0-5.3917-.85136c-4.63588,0-6.95305,2.17578-6.95305,7.99355,0,5.67562,2.55409,7.80441,6.52737,7.80441a16.63253,16.63253,0,0,0,5.48646-.89875l.89875,4.25681a15.79682,15.79682,0,0,1-8.04056,1.75011C1767.69333,1333.96756,1762.86869,1330.56211,1762.86869,1321.14937Z" transform="translate(-1633.00297 -1297.5)"/><path class="cls-2" d="M1802.26748,1333.30535l-8.561-12.156v12.156H1787.037v-35.33267l6.66951-.47268v22.798l9.55451-12.25036,7.0952.66221-10.12234,11.11509,10.59464,13.48041Z" transform="translate(-1633.00297 -1297.5)"/><path class="cls-1" d="M1813.09827,1331.27132l1.608-4.72987a18.48457,18.48457,0,0,0,8.32485,1.98664c3.9259,0,6.24307-1.75011,6.24307-4.399,0-2.55408-1.70272-4.115-6.71613-6.62174-4.58772-2.22317-7.94655-4.58811-7.94655-9.93281,0-5.77039,4.96678-9.93281,12.10859-9.93281a17.41571,17.41571,0,0,1,8.41962,1.93925l-1.37181,4.68249a18.80126,18.80126,0,0,0-6.71613-1.22966c-3.16929,0-5.582,1.46619-5.582,3.83113,0,2.31794,1.56133,4.115,5.39246,5.91253,5.95954,2.838,9.365,5.43947,9.365,10.50026,0,6.85866-5.86476,10.68979-13.5744,10.68979C1819.38872,1333.96756,1815.55759,1333.1162,1813.09827,1331.27132Z" transform="translate(-1633.00297 -1297.5)"/><path class="cls-1" d="M1841.61737,1308.75724l6.66951-.47307v25.02118h-6.66951Zm.04738-10.40588a22.18511,22.18511,0,0,1,6.62213,0v5.81777a25.88408,25.88408,0,0,1-6.62213,0Z" transform="translate(-1633.00297 -1297.5)"/><path class="cls-1" d="M1876.28706,1313.43973h-2.36456a7.74966,7.74966,0,0,1,.804,3.59459,7.34769,7.34769,0,0,1-4.02066,6.66913,3.66229,3.66229,0,0,0-.33092,1.51358c0,1.04089.6626,1.98663,1.89226,3.07453,2.45932,2.0814,3.54683,4.16242,3.54683,6.62213,0,5.58123-4.63511,8.79753-11.91906,8.79753-6.62213,0-11.25724-2.41232-11.25724-8.13532,0-5.39247,4.54111-8.04094,10.31111-8.04094.52044,0,1.04089,0,1.56134.047a4.816,4.816,0,0,1,.75659-2.45932,11.506,11.506,0,0,1-1.277.04738c-5.86553,0-10.31111-2.838-10.31111-8.46661,0-5.58124,4.91864-8.70315,10.642-8.70315a12.34311,12.34311,0,0,1,4.11542.61483h8.561Zm-7.284,21.28442a5.35919,5.35919,0,0,0-1.32443-3.54721,20.38742,20.38742,0,0,0-2.93238-.23653c-3.40545,0-5.25032,1.37181-5.25032,4.25681,0,2.55408,1.79749,3.83151,4.72987,3.83151C1867.34776,1339.02873,1869.0031,1337.373,1869.0031,1334.72415Zm-4.77726-14.00047c2.5067,0,4.35158-1.32442,4.35158-4.16242,0-2.79062-1.75011-4.115-4.3042-4.115-2.5067,0-4.399,1.32442-4.399,4.2098C1859.87427,1319.39926,1861.67176,1320.72368,1864.22584,1320.72368Z" transform="translate(-1633.00297 -1297.5)"/><path class="cls-3" d="M1655.19833,1314.97314h-7.76053l1.09765-7.69743h5.56523Z" transform="translate(-1633.00297 -1297.5)"/><path class="cls-3" d="M1659.83528,1324.36276h-7.76052l1.09765-7.69729h5.56523Z" transform="translate(-1633.00297 -1297.5)"/><path class="cls-3" d="M1650.57034,1324.36276h-7.76949l1.09765-7.76949h5.57419Z" transform="translate(-1633.00297 -1297.5)"/><rect class="cls-4" x="5.86496" y="6.00667" width="24.90022" height="24.625"/><polygon class="cls-5" points="30.765 30.632 5.865 30.632 5.865 36.497 36.63 36.497 36.63 6.007 30.765 6.007 30.765 30.632"/><polygon class="cls-1" points="0 0.142 0 36.497 5.865 36.497 5.865 6.007 36.63 6.007 36.63 0.142 0 0.142"/></svg>