<svg id="Livello_1" data-name="Livello 1" xmlns="http://www.w3.org/2000/svg" viewBox="0 0 46.93811 58.43903"><defs><style>.cls-1{fill:#67a3be;}.cls-2{fill:#fcc800;}.cls-3{fill:none;}.cls-4,.cls-5{fill:#fff;}.cls-4{opacity:0.5;}</style></defs><path class="cls-1" d="M1755,1352.28048a23.495,23.495,0,0,0-23.46906,23.46906c0,11.15015,12.10029,24.55062,22.25084,33.82848l1.25,1.1415,1.22-1.17328c11.24168-10.816,22.21726-22.33459,22.21726-33.7967A23.495,23.495,0,0,0,1755,1352.28048Z" transform="translate(-1731.53094 -1352.28048)"/><path class="cls-2" d="M1757.95176,1374.45172h-5.90353l.835-5.85553h4.23354Z" transform="translate(-1731.53094 -1352.28048)"/><path class="cls-2" d="M1761.47915,1381.59452h-5.90353l.835-5.85542h4.23355Z" transform="translate(-1731.53094 -1352.28048)"/><path class="cls-2" d="M1754.43119,1381.59452h-5.91035l.835-5.91034h4.24035Z" transform="translate(-1731.53094 -1352.28048)"/><rect class="cls-3" x="13.99807" y="13.44855" width="18.94192" height="18.73255"/><polygon class="cls-4" points="32.94 32.181 13.998 32.181 13.998 36.643 37.402 36.643 37.402 13.449 32.94 13.449 32.94 32.181"/><polygon class="cls-5" points="9.537 8.987 9.537 36.643 13.998 36.643 13.998 13.449 37.402 13.449 37.402 8.987 9.537 8.987"/></svg>