<svg id="Livello_1" data-name="Livello 1" xmlns="http://www.w3.org/2000/svg" viewBox="0 0 85.95321 67.89766"><defs><style>.cls-1{fill:none;stroke:#fff;stroke-miterlimit:10;stroke-width:2.89766px;}</style></defs><path class="cls-1" d="M1785.69444,1363.44481a5.41667,5.41667,0,1,0,5.41667-5.41649A5.41636,5.41636,0,0,0,1785.69444,1363.44481Z" transform="translate(-1712.02339 -1347.55117)"/><path class="cls-1" d="M1785.69444,1381.50036a5.41667,5.41667,0,1,0,5.41667-5.41648A5.41636,5.41636,0,0,0,1785.69444,1381.50036Z" transform="translate(-1712.02339 -1347.55117)"/><path class="cls-1" d="M1791.11111,1394.14015a5.4164,5.4164,0,1,1-5.41667,5.41631,5.41638,5.41638,0,0,1,5.41667-5.41631" transform="translate(-1712.02339 -1347.55117)"/><polyline class="cls-1" points="55.615 24.921 62.838 24.921 68.254 15.893 73.671 15.893"/><polyline class="cls-1" points="73.671 52.006 68.254 52.004 62.838 42.976 55.615 42.976"/><path class="cls-1" d="M1724.30556,1363.44481a5.41667,5.41667,0,1,1-5.41667-5.41649A5.41638,5.41638,0,0,1,1724.30556,1363.44481Z" transform="translate(-1712.02339 -1347.55117)"/><path class="cls-1" d="M1724.30556,1381.50036a5.41667,5.41667,0,1,1-5.41667-5.41648A5.41638,5.41638,0,0,1,1724.30556,1381.50036Z" transform="translate(-1712.02339 -1347.55117)"/><path class="cls-1" d="M1718.88889,1394.14015a5.4164,5.4164,0,1,0,5.41667,5.41631,5.41636,5.41636,0,0,0-5.41667-5.41631" transform="translate(-1712.02339 -1347.55117)"/><polyline class="cls-1" points="30.338 24.921 23.115 24.921 17.699 15.893 12.282 15.893"/><polyline class="cls-1" points="12.282 52.006 17.699 52.004 23.115 42.976 30.338 42.976"/><line class="cls-1" x1="12.28216" y1="33.94883" x2="17.69883" y2="33.94883"/><line class="cls-1" x1="28.53216" y1="33.94883" x2="32.14327" y2="33.94883"/><line class="cls-1" x1="21.30994" y1="33.94883" x2="24.92105" y2="33.94883"/><line class="cls-1" x1="53.80994" y1="33.94883" x2="57.42105" y2="33.94883"/><line class="cls-1" x1="68.25438" y1="33.94883" x2="73.67105" y2="33.94883"/><line class="cls-1" x1="61.03216" y1="33.94883" x2="64.64327" y2="33.94883"/><path class="cls-1" d="M1758.61111,1381.5h-7.22222v-9.02778h7.22222a3.61105,3.61105,0,0,1,3.61111,3.61111v1.80556A3.611,3.611,0,0,1,1758.61111,1381.5Z" transform="translate(-1712.02339 -1347.55117)"/><path class="cls-1" d="M39.36549,33.94883h8.83333a2,2,0,0,1,2,2v5.02778a2,2,0,0,1-2,2H39.36549a0,0,0,0,1,0,0V33.94883A0,0,0,0,1,39.36549,33.94883Z"/><line class="cls-1" x1="33.94883" y1="42.97661" x2="39.36549" y2="42.97661"/><line class="cls-1" x1="33.94883" y1="24.92105" x2="39.36549" y2="24.92105"/><line class="cls-1" x1="39.36549" y1="19.50438" x2="39.36549" y2="24.92105"/><line class="cls-1" x1="39.36549" y1="42.97661" x2="39.36549" y2="48.39327"/><line class="cls-1" x1="44.78216" y1="42.97661" x2="44.78216" y2="48.39327"/><line class="cls-1" x1="44.78216" y1="19.50438" x2="44.78216" y2="24.92105"/><path class="cls-1" d="M1738.63154,1364.67674a23.47241,23.47241,0,0,1,32.62007-.11285" transform="translate(-1712.02339 -1347.55117)"/><path class="cls-1" d="M1771.70842,1397.98562a23.47229,23.47229,0,0,1-32.96638.44435" transform="translate(-1712.02339 -1347.55117)"/><path class="cls-1" d="M1732.19076,1358.34863a32.50007,32.50007,0,0,1,45.28514-.32392" transform="translate(-1712.02339 -1347.55117)"/><path class="cls-1" d="M1732.19076,1404.97222a33.33407,33.33407,0,0,0,45.28514.31272" transform="translate(-1712.02339 -1347.55117)"/></svg>