<svg id="Livello_1" data-name="Livello 1" xmlns="http://www.w3.org/2000/svg" viewBox="0 0 71.04651 67.42594"><defs><style>.cls-1,.cls-2{fill:none;stroke:#fff;stroke-width:2.42594px;}.cls-1{stroke-linejoin:round;}.cls-2{stroke-miterlimit:10;}</style></defs><polyline class="cls-1" points="37.791 63.19 37.791 16.329 48.372 16.329 48.372 28.422"/><polyline class="cls-1" points="21.163 63.19 21.163 1.213 31.744 1.213 31.744 63.19"/><polyline class="cls-1" points="4.535 63.19 4.535 31.446 15.116 31.446 15.116 63.19"/><line class="cls-1" y1="66.21297" x2="71.04651" y2="66.21297"/><path class="cls-2" d="M1767.84884,1389.814h6.04651a3.0232,3.0232,0,0,1,3.02325,3.02326v1.51163a3.02319,3.02319,0,0,1-3.02325,3.02325" transform="translate(-1719.47674 -1347.78703)"/><path class="cls-2" d="M48.37209,49.58507h7.06977a2,2,0,0,1,2,2v3.55814a2,2,0,0,1-2,2H48.37209a0,0,0,0,1,0,0V49.58507A0,0,0,0,1,48.37209,49.58507Z"/><line class="cls-2" x1="43.83721" y1="57.14321" x2="48.37209" y2="57.14321"/><line class="cls-2" x1="43.83721" y1="42.02693" x2="48.37209" y2="42.02693"/><line class="cls-2" x1="48.37209" y1="37.49204" x2="48.37209" y2="49.58507"/><line class="cls-2" x1="48.37209" y1="57.14321" x2="48.37209" y2="61.67809"/><line class="cls-2" x1="52.90698" y1="57.14321" x2="52.90698" y2="61.67809"/><line class="cls-2" x1="52.90698" y1="37.49204" x2="52.90698" y2="42.02693"/><path class="cls-2" d="M1761.64935,1381.74881a18.14125,18.14125,0,0,1,22.742,27.718" transform="translate(-1719.47674 -1347.78703)"/></svg>