<svg id="Livello_1" data-name="Livello 1" xmlns="http://www.w3.org/2000/svg" viewBox="0 0 68.85097 67.60789"><defs><style>.cls-1{fill:none;stroke:#fff;stroke-miterlimit:10;stroke-width:2.60789px;}</style></defs><path class="cls-1" d="M1736.50346,1371.75v1.625a3.24994,3.24994,0,0,0,3.25,3.25h3.25a3.24994,3.24994,0,0,0,3.25-3.25v-.90756a3.25,3.25,0,0,0-2.2222-3.08311l-5.30562-1.76866a3.25,3.25,0,0,1-2.22218-3.08311v-.90756a3.24993,3.24993,0,0,1,3.25-3.25h3.25a3.24994,3.24994,0,0,1,3.25,3.25v1.625" transform="translate(-1720.57451 -1347.69605)"/><line class="cls-1" x1="20.80395" y1="12.67895" x2="20.80395" y2="7.80395"/><line class="cls-1" x1="20.80395" y1="28.92895" x2="20.80395" y2="33.80395"/><circle class="cls-1" cx="46.80395" cy="46.80395" r="19.5"/><path class="cls-1" d="M1743.29871,1387.90656q-.94745.09287-1.92025.09344a19.5,19.5,0,1,1,19.5-19.5,19.7142,19.7142,0,0,1-.10075,1.99371" transform="translate(-1720.57451 -1347.69605)"/><path class="cls-1" d="M1749.50346,1414c-14.625,0-22.75-8.47551-22.75-21.9375v-2.4375" transform="translate(-1720.57451 -1347.69605)"/><polyline class="cls-1" points="1.304 46.804 6.179 41.929 11.054 46.804"/><path class="cls-1" d="M1760.87846,1350.625c14.625,0,22.75,8.47551,22.75,21.9375V1375" transform="translate(-1720.57451 -1347.69605)"/><polyline class="cls-1" points="67.929 22.429 63.054 27.304 58.179 22.429"/><path class="cls-1" d="M1764.12846,1386.375h6.5a3.24994,3.24994,0,0,1,3.25,3.25v1.625a3.24994,3.24994,0,0,1-3.25,3.25" transform="translate(-1720.57451 -1347.69605)"/><path class="cls-1" d="M43.55395,46.80395h7.75a2,2,0,0,1,2,2v4.125a2,2,0,0,1-2,2h-7.75a0,0,0,0,1,0,0v-8.125A0,0,0,0,1,43.55395,46.80395Z"/><line class="cls-1" x1="38.67895" y1="54.92895" x2="43.55395" y2="54.92895"/><line class="cls-1" x1="38.67895" y1="38.67895" x2="43.55395" y2="38.67895"/><line class="cls-1" x1="43.55395" y1="33.80395" x2="43.55395" y2="46.80395"/><line class="cls-1" x1="43.55395" y1="54.92895" x2="43.55395" y2="59.80395"/><line class="cls-1" x1="48.42895" y1="54.92895" x2="48.42895" y2="59.80395"/><line class="cls-1" x1="48.42895" y1="33.80395" x2="48.42895" y2="38.67895"/></svg>