<svg id="Livello_1" data-name="Livello 1" xmlns="http://www.w3.org/2000/svg" viewBox="0 0 74.28571 68.09524"><defs><style>.cls-1,.cls-2,.cls-3{fill:none;stroke:#fff;stroke-width:3.09524px;}.cls-1,.cls-2{stroke-linejoin:round;}.cls-2{stroke-linecap:round;}.cls-3{stroke-miterlimit:10;}</style></defs><path class="cls-1" d="M1730.2381,1361.381H1724.043a4.55985,4.55985,0,0,0-4.63822,4.64286" transform="translate(-1717.85714 -1347.45238)"/><polyline class="cls-1" points="66.548 20.119 66.548 13.929 61.905 13.929"/><polyline class="cls-2" points="24.762 18.571 55.714 7.738 58.81 18.571"/><polyline class="cls-2" points="12.381 18.571 49.524 1.548 51.071 4.643"/><path class="cls-3" d="M1789.04762,1386.14286h-13.92857a6.19048,6.19048,0,1,0,0,12.38095h13.92857a1.54769,1.54769,0,0,0,1.54762-1.54762v-9.28571A1.54769,1.54769,0,0,0,1789.04762,1386.14286Z" transform="translate(-1717.85714 -1347.45238)"/><line class="cls-3" x1="57.2619" y1="44.88095" x2="60.35714" y2="44.88095"/><path class="cls-3" d="M1789.04762,1398.52381V1414h-65a4.56372,4.56372,0,0,1-4.64286-4.64286v-43.33333a4.56372,4.56372,0,0,0,4.64286,4.64286h65v15.47619" transform="translate(-1717.85714 -1347.45238)"/><polyline class="cls-3" points="54.167 30.952 47.976 30.952 41.786 37.143 34.048 37.143"/><polyline class="cls-3" points="71.19 58.81 52.619 58.81 46.429 52.619 41.786 52.619"/><circle class="cls-3" cx="37.14286" cy="52.61905" r="4.64286"/><circle class="cls-3" cx="29.40476" cy="37.14286" r="4.64286"/><circle class="cls-3" cx="18.57143" cy="52.61905" r="4.64286"/><line class="cls-3" x1="57.2619" y1="30.95238" x2="60.35714" y2="30.95238"/><line class="cls-3" x1="63.45238" y1="30.95238" x2="66.54762" y2="30.95238"/><polyline class="cls-3" points="18.571 47.976 18.571 40.238 9.286 30.952 1.548 30.952"/><line class="cls-3" x1="7.7381" y1="43.33333" x2="7.7381" y2="46.42857"/><line class="cls-3" x1="7.7381" y1="49.52381" x2="7.7381" y2="52.61905"/><line class="cls-3" x1="7.7381" y1="55.71429" x2="7.7381" y2="58.80952"/></svg>