<svg id="Livello_1" data-name="Livello 1" xmlns="http://www.w3.org/2000/svg" viewBox="0 0 65.87368 67.31813"><defs><style>.cls-1,.cls-2{fill:none;stroke:#fff;stroke-width:2.31813px;}.cls-1{stroke-linejoin:round;}.cls-2{stroke-miterlimit:10;}</style></defs><path class="cls-1" d="M1744.88889,1403.88889a3.43129,3.43129,0,0,1,2.88889-1.44445H1768c1.60549,0,10.43292-8.85256,11.55556-10.11111a77.16655,77.16655,0,0,0,7.22222-11.55555c-.83736-1.128-3.1021-2.06585-5.77778-1.44445-2.55378.59309-4.05587,2.4271-5.77778,5.77778l-6.62192,3.43807" transform="translate(-1722.06316 -1347.84094)"/><path class="cls-1" d="M1753.55556,1393.77778h11.55555c5.77778,0,5.77778-7.22222,0-7.22222h-7.63188c-1.20351,0-3.46016-2.88889-5.36812-2.88889h-7.22222c-1.95189,0-4.37639,1.58354-5.77778,2.88889l-5.77778,5.77777" transform="translate(-1722.06316 -1347.84094)"/><rect class="cls-1" x="1730.39312" y="1389.4657" width="10.21376" height="24.51304" transform="translate(-2204.91427 289.89781) rotate(-45)"/><line class="cls-1" x1="8.38128" y1="48.82573" x2="11.27017" y2="51.71462"/><path class="cls-2" d="M1759.33333,1360.55556h5.77778A2.88884,2.88884,0,0,1,1768,1363.44444v1.44445a2.88885,2.88885,0,0,1-2.88889,2.88889" transform="translate(-1722.06316 -1347.84094)"/><path class="cls-2" d="M37.27017,19.93684h6.66667a2,2,0,0,1,2,2v3.22222a2,2,0,0,1-2,2H37.27017a0,0,0,0,1,0,0V19.93684A0,0,0,0,1,37.27017,19.93684Z"/><line class="cls-2" x1="32.93684" y1="27.15906" x2="37.27017" y2="27.15906"/><line class="cls-2" x1="32.93684" y1="12.71462" x2="37.27017" y2="12.71462"/><line class="cls-2" x1="37.27017" y1="8.38128" x2="37.27017" y2="19.93684"/><line class="cls-2" x1="37.27017" y1="27.15906" x2="37.27017" y2="31.4924"/><line class="cls-2" x1="41.60351" y1="27.15906" x2="41.60351" y2="31.4924"/><line class="cls-2" x1="41.60351" y1="8.38128" x2="41.60351" y2="12.71462"/><path class="cls-2" d="M1748.66856,1380.774a18.7744,18.7744,0,1,1,30.08719-4.08662" transform="translate(-1722.06316 -1347.84094)"/></svg>