<svg id="Livello_1" data-name="Livello 1" xmlns="http://www.w3.org/2000/svg" viewBox="0 0 70.32536 67.37081"><defs><style>.cls-1,.cls-2{fill:none;stroke:#fff;stroke-width:2.37081px;}.cls-1{stroke-miterlimit:10;}.cls-2{stroke-linejoin:round;}</style></defs><circle class="cls-1" cx="54.36722" cy="58.79904" r="7.38636"/><circle class="cls-1" cx="15.95813" cy="58.79904" r="7.38636"/><line class="cls-1" x1="66.1854" y1="38.11722" x2="57.32177" y2="38.11722"/><line class="cls-1" x1="54.36722" y1="38.11722" x2="49.9354" y2="38.11722"/><line class="cls-1" x1="32.20828" y1="38.11722" x2="4.13995" y2="38.11722"/><polyline class="cls-1" points="60.121 54.17 66.185 38.117 69.14 38.117 69.14 30.731 1.185 30.731 1.185 38.117 4.14 38.117 11.039 53.297"/><line class="cls-1" x1="23.34523" y1="58.79904" x2="46.98115" y2="58.79904"/><line class="cls-1" x1="17.4354" y1="58.79904" x2="14.48086" y2="58.79904"/><line class="cls-1" x1="55.8445" y1="58.79904" x2="52.88995" y2="58.79904"/><path class="cls-1" d="M1726.93182,1375.59091v-.73864a14.03409,14.03409,0,0,1,28.06818,0v.73864" transform="translate(-1719.83732 -1347.8146)"/><polyline class="cls-2" points="51.413 23.344 60.276 23.344 60.276 27.776"/><line class="cls-2" x1="38.11722" y1="23.3445" x2="46.98086" y2="23.3445"/><polyline class="cls-2" points="54.367 15.958 63.231 15.958 63.231 23.344 60.276 23.344"/><line class="cls-2" x1="36.63995" y1="15.95813" x2="49.9354" y2="15.95813"/><polyline class="cls-2" points="49.935 8.572 57.322 8.572 57.322 15.958"/><polyline class="cls-2" points="27.776 11.526 27.776 8.572 45.504 8.572"/><polyline class="cls-2" points="52.89 1.185 60.276 1.185 60.276 8.572 57.322 8.572"/><polyline class="cls-2" points="30.731 8.572 30.731 1.185 48.458 1.185"/></svg>