<svg id="Livello_1" data-name="Livello 1" xmlns="http://www.w3.org/2000/svg" viewBox="0 0 45.04492 53"><defs><style>.cls-1{fill:#ccc;}</style></defs><path class="cls-1" d="M1748.75,1397.77246a5.84714,5.84714,0,0,1-6.0459-6.04492v-2.27344a6.0459,6.0459,0,0,1,12.0918,0v2.27344A5.84714,5.84714,0,0,1,1748.75,1397.77246Zm0-11.36328a2.85373,2.85373,0,0,0-3.0459,3.04492v2.27344a3.0459,3.0459,0,0,0,6.0918,0v-2.27344A2.85373,2.85373,0,0,0,1748.75,1386.40918Z" transform="translate(-1732.47754 -1355)"/><path class="cls-1" d="M1758.97754,1408a1.50039,1.50039,0,0,1-1.5-1.5v-4.5459c0-2.30859-5.28125-4.18164-8.72754-4.18164s-8.72754,1.87305-8.72754,4.18164V1406.5a1.5,1.5,0,0,1-3,0v-4.5459c0-5.01269,7.76563-7.18164,11.72754-7.18164s11.72754,2.16895,11.72754,7.18164V1406.5A1.50039,1.50039,0,0,1,1758.97754,1408Z" transform="translate(-1732.47754 -1355)"/><g id="Rectangle"><path class="cls-1" d="M1762.4043,1397.875a2.71054,2.71054,0,0,1-.874-.14746,2.60579,2.60579,0,0,1-1.78027-2.49414v-5.415h-1.90918a1.5,1.5,0,0,1,0-3H1761.25a1.50039,1.50039,0,0,1,1.5,1.5v5.85547l5.27051-6.77637a1.49959,1.49959,0,0,1,1.18359-.5791h3.40918a1.91133,1.91133,0,0,0,1.90918-1.90918v-25A1.91133,1.91133,0,0,0,1772.61328,1358h-35.22656a1.91133,1.91133,0,0,0-1.90918,1.90918v25a1.91133,1.91133,0,0,0,1.90918,1.90918h2.27246a1.5,1.5,0,0,1,0,3h-2.27246a4.91461,4.91461,0,0,1-4.90918-4.90918v-25A4.91461,4.91461,0,0,1,1737.38672,1355h35.22656a4.91461,4.91461,0,0,1,4.90918,4.90918v25a4.91461,4.91461,0,0,1-4.90918,4.90918h-2.67578l-5.4707,7.03418A2.59965,2.59965,0,0,1,1762.4043,1397.875Z" transform="translate(-1732.47754 -1355)"/></g><path class="cls-1" d="M1753.2959,1380.72754a1.50062,1.50062,0,0,1-1.06055-.43945l-6.81836-6.81836a1.49946,1.49946,0,0,1,0-2.1211l3.40918-3.40918a1.49947,1.49947,0,0,1,2.1211,0l2.34863,2.34864,6.89355-6.89454a1.544,1.544,0,0,1,2.1211,0l3.40918,3.40918a1.49947,1.49947,0,0,1,0,2.1211l-11.36328,11.36426A1.50062,1.50062,0,0,1,1753.2959,1380.72754Zm-4.69727-8.31836,4.69727,4.69727,9.24219-9.24317-1.28809-1.28808-6.89355,6.89453a1.544,1.544,0,0,1-2.1211,0l-2.34863-2.34864Z" transform="translate(-1732.47754 -1355)"/></svg>