<svg id="Livello_1" data-name="Livello 1" xmlns="http://www.w3.org/2000/svg" viewBox="0 0 67.82674 67.82609"><defs><style>.cls-1,.cls-2{fill:none;stroke:#fff;stroke-linejoin:round;stroke-width:2.82609px;}.cls-2{stroke-linecap:round;}</style></defs><polygon class="cls-1" points="55.109 39.565 45.218 49.457 40.979 45.217 36.74 49.457 45.218 57.935 59.348 43.804 55.109 39.565"/><circle class="cls-1" cx="48.04413" cy="48.04348" r="18.36957"/><path class="cls-1" d="M1742.28294,1373.02174c5.76343,0,9.8913-4.154,9.8913-10.17391v-3.67392c0-6.01965-4.12787-10.17391-9.8913-10.17391s-9.89131,4.15426-9.89131,10.17391v3.67392C1732.39163,1368.86773,1736.51954,1373.02174,1742.28294,1373.02174Z" transform="translate(-1721.08663 -1347.58696)"/><path class="cls-2" d="M1755.08129,1376.24544a29.61661,29.61661,0,0,0-12.79873-3.22372c-6.872,0-19.78289,3.90062-19.78289,12.71739l.00066,11.30437" transform="translate(-1721.08663 -1347.58696)"/></svg>